<svg id="visual" viewBox="0 0 1920 1080" width="1920" height="1080" xmlns="http://www.w3.org/2000/svg" xmlns:xlink="http://www.w3.org/1999/xlink" version="1.1"><rect x="0" y="0" width="1920" height="1080" fill="#002233"></rect><path d="M0 778L45.7 772.7C91.3 767.3 182.7 756.7 274.2 755C365.7 753.3 457.3 760.7 548.8 768.8C640.3 777 731.7 786 823 814.2C914.3 842.3 1005.7 889.7 1097 884.3C1188.3 879 1279.7 821 1371.2 807.3C1462.7 793.7 1554.3 824.3 1645.8 853.2C1737.3 882 1828.7 909 1874.3 922.5L1920 936L1920 1081L1874.3 1081C1828.7 1081 1737.3 1081 1645.8 1081C1554.3 1081 1462.7 1081 1371.2 1081C1279.7 1081 1188.3 1081 1097 1081C1005.7 1081 914.3 1081 823 1081C731.7 1081 640.3 1081 548.8 1081C457.3 1081 365.7 1081 274.2 1081C182.7 1081 91.3 1081 45.7 1081L0 1081Z" fill="#0066FF" stroke-linecap="round" stroke-linejoin="miter"></path></svg>